<?xml version="1.0" standalone="no"?>
<!DOCTYPE svg PUBLIC "-//W3C//DTD SVG 20010904//EN"
 "http://www.w3.org/TR/2001/REC-SVG-20010904/DTD/svg10.dtd">
<svg version="1.0" xmlns="http://www.w3.org/2000/svg"
 width="868.000000pt" height="400.000000pt" viewBox="0 0 868.000000 400.000000"
 preserveAspectRatio="xMidYMid meet">

<g transform="translate(0.000000,400.000000) scale(0.100000,-0.100000)"
fill="#000000" stroke="none">
<path d="M371 3552 c-65 -32 -76 -59 -80 -193 -5 -196 44 -418 175 -786 177
-499 269 -626 508 -702 101 -32 246 -58 385 -68 49 -3 88 -10 85 -14 -3 -5
-20 -9 -39 -9 -49 0 -220 -36 -303 -64 -202 -69 -318 -175 -380 -350 -35 -97
-36 -272 -3 -466 26 -158 29 -311 6 -385 -21 -70 -20 -122 4 -134 41 -23 167
32 327 140 269 183 406 350 499 609 42 117 108 380 121 480 3 25 7 52 9 60 3
8 7 35 10 60 3 25 8 61 11 80 20 146 8 466 -21 570 -2 8 -7 29 -10 45 -14 80
-42 175 -71 241 -14 33 -33 75 -41 94 -44 100 -170 269 -287 385 -223 223
-479 366 -735 410 -107 19 -129 19 -170 -3z m1247 -1597 c-3 -3 -9 2 -12 12
-6 14 -5 15 5 6 7 -7 10 -15 7 -18z m27 -165 c3 -5 1 -10 -4 -10 -6 0 -11 5
-11 10 0 6 2 10 4 10 3 0 8 -4 11 -10z m-35 -50 c0 -5 -7 -7 -15 -4 -8 4 -15
8 -15 10 0 2 7 4 15 4 8 0 15 -4 15 -10z m0 -360 c0 -5 -5 -10 -11 -10 -5 0
-7 5 -4 10 3 6 8 10 11 10 2 0 4 -4 4 -10z"/>
<path d="M2980 3560 c-368 -52 -771 -337 -987 -697 -151 -252 -209 -480 -207
-818 2 -408 114 -894 265 -1148 114 -192 459 -463 657 -516 65 -18 86 -2 79
57 -3 26 -8 58 -12 72 -29 107 -28 164 10 420 14 90 15 107 19 205 6 154 -27
267 -111 377 -100 131 -246 207 -492 252 -46 9 -100 16 -122 16 -21 0 -41 5
-44 10 -4 6 14 10 47 10 158 0 439 55 538 105 141 72 247 228 359 530 23 61
45 119 51 130 10 21 62 181 61 190 0 2 7 24 15 47 16 46 62 217 70 258 2 14 7
36 10 50 14 61 18 103 18 220 1 178 -23 222 -124 233 -25 3 -70 2 -100 -3z
m113 -17 c-7 -2 -21 -2 -30 0 -10 3 -4 5 12 5 17 0 24 -2 18 -5z m94 -239 c-3
-3 -12 -4 -19 -1 -8 3 -5 6 6 6 11 1 17 -2 13 -5z m-107 -94 c0 -5 -2 -10 -4
-10 -3 0 -8 5 -11 10 -3 6 -1 10 4 10 6 0 11 -4 11 -10z"/>
<path d="M6970 2413 l0 -533 99 0 100 0 -6 228 c-6 213 -5 230 14 273 46 104
208 108 256 6 14 -30 17 -71 17 -271 l0 -236 100 0 100 0 0 245 c0 138 -5 266
-11 295 -14 66 -65 138 -123 174 -85 53 -268 45 -321 -14 -10 -11 -22 -20 -27
-20 -4 0 -8 85 -8 189 l0 190 -95 3 -95 3 0 -532z"/>
<path d="M3640 2375 l0 -495 100 0 100 0 1 323 0 322 19 -45 c10 -25 61 -139
113 -255 l94 -210 89 -3 90 -3 54 118 c29 65 82 181 117 258 l63 140 0 -322 0
-323 101 0 100 0 -2 495 -2 495 -112 0 -111 0 -149 -331 c-87 -195 -151 -325
-155 -317 -4 7 -71 156 -150 331 l-143 317 -108 0 -109 0 0 -495z"/>
<path d="M4986 2606 c-155 -65 -245 -244 -217 -433 31 -206 181 -324 396 -311
230 15 372 188 352 428 -8 96 -46 177 -113 240 -78 74 -127 93 -254 97 -94 3
-111 1 -164 -21z m238 -169 c60 -34 91 -101 91 -197 -1 -61 -5 -83 -25 -120
-66 -119 -234 -120 -297 -1 -41 78 -28 224 25 285 53 59 137 73 206 33z"/>
<path d="M5903 2609 c-40 -19 -82 -60 -110 -105 -10 -16 -12 -9 -12 44 l-1 62
-94 0 -93 0 0 -365 1 -365 98 0 98 0 0 210 c0 155 4 219 14 243 29 71 117 114
209 104 l47 -6 0 99 0 100 -57 0 c-39 0 -72 -7 -100 -21z"/>
<path d="M6440 2621 c-40 -13 -85 -38 -99 -55 -21 -25 -31 -19 -24 14 l6 30
-100 0 -100 0 2 -512 1 -511 100 1 99 1 -4 187 -4 188 44 -37 c118 -101 306
-83 418 39 76 83 96 143 96 289 0 109 -2 125 -26 176 -35 73 -85 128 -151 164
-46 25 -65 30 -143 32 -49 1 -101 -1 -115 -6z m158 -190 c64 -45 93 -145 72
-245 -20 -96 -88 -156 -176 -156 -106 0 -174 83 -174 210 0 105 30 172 92 204
48 24 144 18 186 -13z"/>
<path d="M7962 2612 c-186 -67 -280 -296 -211 -518 18 -57 31 -77 83 -130 54
-54 72 -65 135 -85 203 -61 414 30 480 206 41 110 37 255 -11 349 -31 61 -105
133 -167 163 -76 36 -227 44 -309 15z m236 -181 c53 -37 76 -93 76 -186 1 -64
-4 -88 -21 -122 -69 -129 -243 -123 -304 12 -22 48 -24 152 -5 208 16 44 39
72 81 99 41 26 129 21 173 -11z"/>
<path d="M3640 1185 l0 -495 101 0 101 0 -3 168 -3 167 165 5 c152 6 168 8
214 32 64 33 108 80 137 143 19 41 22 66 22 145 -1 63 -6 107 -17 130 -27 61
-75 118 -123 146 -76 45 -138 54 -376 54 l-218 0 0 -495z m441 314 c21 -7 50
-25 66 -41 22 -23 28 -39 31 -92 8 -128 -42 -165 -225 -166 l-113 0 0 155 0
155 101 0 c56 0 119 -5 140 -11z"/>
<path d="M5539 1431 c-38 -12 -71 -31 -96 -54 l-23 -20 0 31 0 32 -101 0 -101
0 6 -31 c3 -17 6 -182 6 -365 l0 -334 95 0 95 0 0 235 c0 249 5 280 49 319 26
24 107 32 140 14 14 -7 34 -29 45 -48 20 -33 21 -50 20 -277 l-1 -243 99 0 98
0 0 233 c0 206 3 237 19 274 43 93 172 99 215 9 13 -28 16 -73 16 -275 l0
-241 101 0 100 0 -3 278 c-3 256 -5 280 -24 322 -78 167 -295 201 -423 66
l-35 -36 -38 40 c-21 22 -53 47 -71 56 -36 19 -149 28 -188 15z"/>
<path d="M6656 1424 c-100 -31 -168 -93 -220 -204 -29 -60 -31 -73 -30 -165 1
-78 6 -113 23 -156 62 -161 185 -236 370 -227 137 7 238 63 287 159 l24 49
-22 4 c-13 3 -54 10 -93 16 -69 11 -69 11 -88 -15 -28 -37 -69 -55 -130 -55
-68 0 -113 28 -144 90 -43 85 -57 80 236 80 l259 0 7 38 c8 51 -18 174 -49
227 -14 23 -49 63 -77 89 -86 78 -232 107 -353 70z m201 -161 c41 -19 73 -66
73 -105 l0 -28 -161 0 -160 0 6 23 c32 105 145 156 242 110z"/>
<path d="M7393 1430 c-84 -18 -160 -73 -182 -133 -18 -47 -13 -148 8 -183 39
-64 101 -95 261 -130 115 -25 149 -56 127 -118 -26 -74 -184 -75 -245 0 l-29
35 -84 -3 c-83 -3 -84 -3 -80 -28 9 -68 66 -135 146 -172 43 -20 66 -23 170
-23 111 0 124 2 177 28 114 56 160 153 128 269 -24 86 -85 124 -260 163 -62
14 -122 33 -132 42 -20 18 -23 54 -8 83 14 25 79 44 123 36 40 -7 87 -41 87
-62 0 -11 19 -14 91 -14 l91 0 -7 28 c-29 116 -120 181 -264 188 -42 1 -95 -1
-118 -6z"/>
<path d="M4427 1378 c9 -24 74 -184 144 -357 126 -310 127 -313 114 -351 -36
-101 -76 -136 -147 -127 l-38 5 0 -84 0 -84 75 0 c114 0 191 40 240 124 14 24
99 239 189 477 l163 434 -95 3 c-54 2 -98 -1 -101 -7 -3 -5 -42 -111 -86 -235
-44 -124 -82 -226 -85 -226 -3 0 -30 64 -59 143 -30 78 -69 184 -89 235 l-35
92 -103 0 -104 0 17 -42z"/>
</g>
</svg>
